<svg xmlns="http://www.w3.org/2000/svg" xmlns:xlink="http://www.w3.org/1999/xlink" zoomAndPan="magnify" preserveAspectRatio="xMidYMid meet" version="1.0" viewBox="77 127.82 217.26 82.5"><rect id="backgroundrect" width="100%" height="100%" x="0" y="0" fill="none" stroke="none"/><defs><g id="svg_1"/><clipPath id="1b27d6dc61"><path d="M 83 144 L 149 144 L 149 210.320312 L 83 210.320312 Z M 83 144 " clip-rule="nonzero" id="svg_2"/></clipPath><clipPath id="2a80e75d6c"><path d="M 77 127.820312 L 154 127.820312 L 154 165 L 77 165 Z M 77 127.820312 " clip-rule="nonzero" id="svg_3"/></clipPath></defs><g class="currentLayer" style=""><title>Layer 1</title><path fill="#ffffff" d="M 107.761719 189.75 C 110.496094 190.351562 111.429688 187.542969 109.945312 183.933594 C 109.074219 181.820312 109.589844 181.300781 109.660156 181.242188 C 108.136719 182.117188 112.421875 190.066406 107.578125 189.027344 C 102.496094 187.933594 105.953125 179.925781 105.953125 179.925781 C 102.953125 185.609375 104.613281 189.054688 107.761719 189.75 " fill-opacity="1" fill-rule="nonzero" id="svg_4" class=""/><g clip-path="url(#1b27d6dc61)" id="svg_5" class="" fill="#ffffff" fill-opacity="1"><path fill="#ffffff" d="M 145.992188 166.476562 L 115.8125 144.808594 L 85.628906 166.476562 C 84.875 167.019531 84.027344 167.382812 83.132812 167.582031 L 89.671875 210.304688 L 101.691406 210.304688 C 100.109375 204.679688 101.929688 197.570312 102.472656 193.710938 C 103.402344 187.128906 99.480469 187.855469 94.21875 186.414062 C 88.953125 184.976562 89.390625 178.601562 89.390625 178.601562 C 89.390625 178.601562 89.390625 174.976562 93.726562 176.441406 C 98.058594 177.90625 103.398438 173.589844 107.8125 175.363281 C 112.222656 177.136719 114.3125 181.6875 111.757812 187.625 C 110.175781 191.3125 112.863281 196.175781 117.570312 198.746094 C 120.269531 194.496094 128.050781 182.621094 132.070312 180.410156 C 136.722656 177.851562 131.769531 183.855469 133.070312 184.691406 C 134.375 185.527344 136.441406 181.078125 138.121094 181.710938 C 139.417969 182.195312 136.074219 187.367188 136.074219 187.367188 C 136.074219 187.367188 139.238281 190.519531 139.144531 192.285156 C 139.078125 193.53125 140.417969 194.363281 141.199219 194.742188 C 141.507812 194.890625 141.613281 195.273438 141.425781 195.558594 C 140.769531 196.554688 139.082031 198.339844 135.886719 197.09375 C 131.664062 195.449219 127.171875 200.460938 132.585938 210.304688 L 141.949219 210.304688 L 148.488281 167.582031 C 147.597656 167.382812 146.75 167.019531 145.992188 166.476562 " fill-opacity="1" fill-rule="nonzero" id="svg_6"/></g><g clip-path="url(#2a80e75d6c)" id="svg_7" class="" fill="#ffffff" fill-opacity="1"><path fill="#ffffff" d="M 115.8125 127.839844 L 79.207031 158.042969 C 76.4375 160.324219 78.058594 164.804688 81.652344 164.804688 C 82.457031 164.804688 83.238281 164.554688 83.890625 164.085938 L 115.8125 141.171875 L 147.730469 164.085938 C 148.382812 164.554688 149.167969 164.804688 149.972656 164.804688 C 153.566406 164.804688 155.183594 160.324219 152.417969 158.042969 L 115.8125 127.839844 " fill-opacity="1" fill-rule="nonzero" id="svg_8"/></g><g fill="#ffffff" fill-opacity="1" id="svg_9" class=""><g id="svg_10" fill="#ffffff" fill-opacity="1"><g id="svg_11" fill="#ffffff" fill-opacity="1"><path d="M177.5943145751953,177.22132873535156 C177.5943145751953,178.56507873535156 177.2700955751953,179.73304773535156 176.6255645751953,180.72132873535156 C175.9888455751953,181.70179773535156 175.0865015751953,182.45570373535156 173.9224395751953,182.98695373535156 C172.7544705751953,183.51820373535156 171.4146275751953,183.78382873535156 169.9068145751953,183.78382873535156 L166.0786895751953,183.78382873535156 C165.8599395751953,183.78382873535156 165.7505645751953,183.88929773535156 165.7505645751953,184.09632873535156 L165.7505645751953,190.40882873535156 C165.7505645751953,190.71351673535156 165.6724395751953,190.92445373535156 165.5161895751953,191.04945373535156 C165.3677515751953,191.16664123535156 165.1411895751953,191.22132873535156 164.8286895751953,191.22132873535156 L160.1255645751953,191.22132873535156 C159.8521275751953,191.22132873535156 159.6646275751953,191.17054753535157 159.5630645751953,191.06507873535156 C159.4575955751953,190.95179773535156 159.4068145751953,190.76820373535156 159.4068145751953,190.51820373535156 L159.4068145751953,171.12757873535156 C159.4068145751953,170.70179773535156 159.5825955751953,170.48695373535156 159.9380645751953,170.48695373535156 L169.1880645751953,170.48695373535156 C170.7505645751953,170.48695373535156 172.1646275751953,170.74867273535156 173.4380645751953,171.26820373535156 C174.7193145751953,171.77992273535156 175.7271275751953,172.54164073535156 176.4693145751953,173.54945373535156 C177.2193145751953,174.54945373535156 177.5943145751953,175.77601673535156 177.5943145751953,177.22132873535156 zM171.1099395751953,177.14320373535156 C171.1099395751953,176.48695373535156 170.8833775751953,175.96351673535156 170.4380645751953,175.56507873535156 C169.9888455751953,175.15882873535156 169.4419705751953,174.95570373535156 168.7974395751953,174.95570373535156 L166.3911895751953,174.95570373535156 C166.1490015751953,174.95570373535156 165.9849395751953,175.00257873535156 165.8911895751953,175.09632873535156 C165.7974395751953,175.19007873535156 165.7505645751953,175.34242273535156 165.7505645751953,175.54945373535156 L165.7505645751953,178.70570373535156 C165.7505645751953,178.92445373535156 165.7857205751953,179.08070373535156 165.8599395751953,179.17445373535156 C165.9302515751953,179.26820373535156 166.0513455751953,179.31507873535156 166.2193145751953,179.31507873535156 L168.9536895751953,179.31507873535156 C169.6099395751953,179.31507873535156 170.1294705751953,179.10804773535156 170.5161895751953,178.69007873535156 C170.9107205751953,178.27601673535156 171.1099395751953,177.76039073535156 171.1099395751953,177.14320373535156 zM171.1099395751953,177.14320373535156 " id="svg_12" fill="#ffffff" fill-opacity="1"/></g></g></g><g fill="#ffffff" fill-opacity="1" id="svg_13" class=""><g id="svg_14" fill="#ffffff" fill-opacity="1"><g id="svg_15" fill="#ffffff" fill-opacity="1"><path d="M179.8291473388672,171.12757873535156 C179.8291473388672,170.70179773535156 180.0049283388672,170.48695373535156 180.3603973388672,170.48695373535156 L195.4385223388672,170.48695373535156 C195.7822723388672,170.48695373535156 195.9541473388672,170.68617273535156 195.9541473388672,171.08070373535156 L195.9228973388672,174.31507873535156 C195.9228973388672,174.82679773535156 195.6768033388672,175.08070373535156 195.1885223388672,175.08070373535156 L186.8135223388672,175.08070373535156 C186.3838343388672,175.08070373535156 186.1728973388672,175.26039073535156 186.1728973388672,175.61195373535156 L186.1728973388672,177.97132873535156 C186.1728973388672,178.15882873535156 186.2197723388672,178.30726673535156 186.3135223388672,178.40882873535156 C186.4072723388672,178.51429773535156 186.5244603388672,178.56507873535156 186.6728973388672,178.56507873535156 L191.7041473388672,178.56507873535156 C192.0869603388672,178.56507873535156 192.2822723388672,178.75257873535156 192.2822723388672,179.12757873535156 L192.2822723388672,182.59632873535156 C192.2822723388672,182.90882873535156 192.1143033388672,183.06507873535156 191.7822723388672,183.06507873535156 L186.6103973388672,183.06507873535156 C186.4853973388672,183.06507873535156 186.3799283388672,183.10414073535156 186.2978973388672,183.17445373535156 C186.2119603388672,183.24867273535156 186.1728973388672,183.34242273535156 186.1728973388672,183.45570373535156 L186.1728973388672,186.25257873535156 C186.1728973388672,186.40101673535156 186.1924283388672,186.50257873535156 186.2353973388672,186.56507873535156 C186.2861783388672,186.61976673535156 186.3760223388672,186.64320373535156 186.5010223388672,186.64320373535156 L195.5791473388672,186.64320373535156 C195.9932103388672,186.64320373535156 196.2041473388672,186.82289073535156 196.2041473388672,187.17445373535156 L196.2041473388672,190.61195373535156 C196.2041473388672,190.79945373535156 196.1455533388672,190.95179773535156 196.0322723388672,191.06507873535156 C195.9150843388672,191.17054753535157 195.7510223388672,191.22132873535156 195.5322723388672,191.22132873535156 L180.5791473388672,191.22132873535156 C180.2978973388672,191.22132873535156 180.0986783388672,191.17054753535157 179.9853973388672,191.06507873535156 C179.8799283388672,190.95179773535156 179.8291473388672,190.76820373535156 179.8291473388672,190.51820373535156 zM179.8291473388672,171.12757873535156 " id="svg_16" fill="#ffffff" fill-opacity="1"/></g></g></g><g fill="#ffffff" fill-opacity="1" id="svg_17" class=""><g id="svg_18" fill="#ffffff" fill-opacity="1"><g id="svg_19" fill="#ffffff" fill-opacity="1"><path d="M197.90335083007812,171.12757873535156 C197.90335083007812,170.95179773535156 197.95803883007812,170.79945373535156 198.07522583007812,170.67445373535156 C198.20022583007812,170.54945373535156 198.37600683007813,170.48695373535156 198.60647583007812,170.48695373535156 L215.30960083007812,170.48695373535156 C215.52835083007812,170.48695373535156 215.70022583007812,170.54945373535156 215.82522583007812,170.67445373535156 C215.95022583007812,170.79945373535156 216.01272583007812,170.95179773535156 216.01272583007812,171.12757873535156 L216.01272583007812,174.45570373535156 C216.01272583007812,174.81117273535156 215.80178883007812,174.98695373535156 215.38772583007812,174.98695373535156 L210.45022583007812,174.98695373535156 C210.21975683007813,174.98695373535156 210.10647583007812,175.08070373535156 210.10647583007812,175.26820373535156 L210.10647583007812,190.61195373535156 C210.10647583007812,190.81117273535156 210.05960083007812,190.96351673535156 209.96585083007812,191.06507873535156 C209.87991283007813,191.17054753535157 209.75100683007813,191.22132873535156 209.57522583007812,191.22132873535156 L204.27835083007812,191.22132873535156 C203.94241283007813,191.22132873535156 203.77835083007812,191.03382873535156 203.77835083007812,190.65882873535156 L203.77835083007812,175.37757873535156 C203.77835083007812,175.11976673535156 203.67288183007813,174.98695373535156 203.46585083007812,174.98695373535156 L198.54397583007812,174.98695373535156 C198.11428883007812,174.98695373535156 197.90335083007812,174.81117273535156 197.90335083007812,174.45570373535156 zM197.90335083007812,171.12757873535156 " id="svg_20" fill="#ffffff" fill-opacity="1"/></g></g></g><g fill="#ffffff" fill-opacity="1" id="svg_21" class=""><g id="svg_22" fill="#ffffff" fill-opacity="1"><g id="svg_23" fill="#ffffff" fill-opacity="1"><path d="M224.08700561523438,170.48695373535156 C224.41903661523438,170.48695373535156 224.58700561523438,170.68617273535156 224.58700561523438,171.08070373535156 L224.58700561523438,190.40882873535156 C224.58700561523438,190.71351673535156 224.50888061523438,190.92445373535156 224.35263061523438,191.04945373535156 C224.20419261523438,191.16664123535156 223.97763061523438,191.22132873535156 223.66513061523438,191.22132873535156 L218.99325561523438,191.22132873535156 C218.71200561523438,191.22132873535156 218.51278661523438,191.17054753535157 218.39950561523438,191.06507873535156 C218.29403661523438,190.95179773535156 218.24325561523438,190.76820373535156 218.24325561523438,190.51820373535156 L218.24325561523438,171.12757873535156 C218.24325561523438,170.93226673535156 218.29013061523438,170.77601673535156 218.38388061523438,170.65882873535156 C218.47763061523438,170.54554773535156 218.60653661523438,170.48695373535156 218.77450561523438,170.48695373535156 zM224.08700561523438,170.48695373535156 " id="svg_24" fill="#ffffff" fill-opacity="1"/></g></g></g><g fill="#ffffff" fill-opacity="1" id="svg_25" class=""><g id="svg_26" fill="#ffffff" fill-opacity="1"><g id="svg_27" fill="#ffffff" fill-opacity="1"><path d="M236.78744506835938,170.20570373535156 C238.33822606835938,170.20570373535156 239.73275706835938,170.48304773535156 240.97494506835938,171.03382873535156 C242.22494506835938,171.58851673535156 243.24838306835937,172.34632873535156 244.05307006835938,173.31507873535156 C244.85385106835938,174.28382873535156 245.37338306835937,175.39320373535156 245.61557006835938,176.64320373535156 C245.67807006835938,176.86195373535156 245.70932006835938,177.04164073535156 245.70932006835938,177.17445373535156 C245.70932006835938,177.34242273535156 245.67025706835938,177.45179773535156 245.59994506835938,177.50257873535156 C245.53744506835938,177.55726673535156 245.42025706835938,177.59242273535156 245.25619506835938,177.61195373535156 L240.36557006835938,177.92445373535156 C240.17807006835938,177.92445373535156 240.05697606835938,177.89320373535156 240.00619506835938,177.83070373535156 C239.95150706835938,177.76039073535156 239.89682006835938,177.61195373535156 239.83432006835938,177.39320373535156 C239.66635106835938,176.49867273535156 239.35775706835938,175.79554773535156 238.91244506835938,175.28382873535156 C238.46322606835938,174.77601673535156 237.81088306835937,174.51820373535156 236.95932006835938,174.51820373535156 C235.86557006835938,174.51820373535156 235.01400706835938,175.00257873535156 234.41244506835938,175.97132873535156 C233.81869506835938,176.94007873535156 233.52182006835938,178.51429773535156 233.52182006835938,180.69007873535156 C233.52182006835938,182.94007873535156 233.79525706835938,184.54554773535156 234.34994506835938,185.50257873535156 C234.90072606835938,186.45179773535156 235.76010106835938,186.92445373535156 236.92807006835938,186.92445373535156 C237.91635106835938,186.92445373535156 238.76010106835938,186.67445373535156 239.45932006835938,186.17445373535156 C240.15463306835937,185.66664073535156 240.74057006835938,184.82289073535156 241.20932006835938,183.64320373535156 C241.26010106835938,183.47914073535156 241.41635106835938,183.39320373535156 241.67807006835938,183.39320373535156 C241.81088306835937,183.39320373535156 241.91635106835938,183.40492273535156 241.99057006835938,183.42445373535156 L245.47494506835938,184.12757873535156 C245.75619506835938,184.22132873535156 245.89682006835938,184.43617273535156 245.89682006835938,184.76820373535156 C245.89682006835938,185.29164073535156 245.57260106835938,186.09632873535156 244.92807006835938,187.19007873535156 C244.29135106835938,188.27601673535156 243.28744506835938,189.26429773535156 241.91244506835938,190.15882873535156 C240.54525706835938,191.05726673535156 238.82260106835938,191.50257873535156 236.74057006835938,191.50257873535156 C234.76010106835938,191.50257873535156 233.02572606835938,191.03382873535156 231.53744506835938,190.09632873535156 C230.04525706835938,189.15101673535156 228.89682006835938,187.85414073535156 228.08432006835938,186.20570373535156 C227.27963306835937,184.56117273535156 226.88119506835938,182.68617273535156 226.88119506835938,180.58070373535156 C226.88119506835938,178.49867273535156 227.27963306835937,176.67445373535156 228.08432006835938,175.11195373535156 C228.89682006835938,173.54164073535156 230.05307006835938,172.33070373535156 231.55307006835938,171.48695373535156 C233.05307006835938,170.63539073535156 234.79525706835938,170.20570373535156 236.78744506835938,170.20570373535156 zM236.78744506835938,170.20570373535156 " id="svg_28" fill="#ffffff" fill-opacity="1"/></g></g></g><g fill="#ffffff" fill-opacity="1" id="svg_29" class=""><g id="svg_30" fill="#ffffff" fill-opacity="1"><g id="svg_31" fill="#ffffff" fill-opacity="1"><path d="M257.5492706298828,191.50257873535156 C255.5180206298828,191.50257873535156 253.7406766298828,191.07289073535156 252.2211456298828,190.20570373535156 C250.7094266298828,189.34242273535156 249.5414576298828,188.11195373535156 248.7211456298828,186.51820373535156 C247.8969266298828,184.92445373535156 247.4867706298828,183.05726673535156 247.4867706298828,180.90882873535156 C247.4867706298828,178.77601673535156 247.9008336298828,176.90101673535156 248.7367706298828,175.28382873535156 C249.5688016298828,173.67054773535156 250.7406766298828,172.42054773535156 252.2523956298828,171.53382873535156 C253.7719266298828,170.65101673535156 255.5375516298828,170.20570373535156 257.5492706298828,170.20570373535156 C259.53755162988284,170.20570373535156 261.28755162988284,170.65101673535156 262.7992706298828,171.53382873535156 C264.3070836298828,172.42054773535156 265.47505162988284,173.67054773535156 266.2992706298828,175.28382873535156 C267.13130162988284,176.90101673535156 267.5492706298828,178.77601673535156 267.5492706298828,180.90882873535156 C267.5492706298828,183.03382873535156 267.1352076298828,184.90101673535156 266.3148956298828,186.50257873535156 C265.5023956298828,188.10804773535156 264.3383336298828,189.34242273535156 262.8305206298828,190.20570373535156 C261.31880162988284,191.07289073535156 259.5570836298828,191.50257873535156 257.5492706298828,191.50257873535156 zM257.5492706298828,187.14320373535156 C258.3695836298828,187.14320373535156 259.02192662988284,186.94789073535156 259.5023956298828,186.54945373535156 C259.99067662988284,186.14320373535156 260.3461456298828,185.49476673535156 260.5648956298828,184.59632873535156 C260.7914576298828,183.70179773535156 260.9086456298828,182.50257873535156 260.9086456298828,181.00257873535156 C260.9086456298828,178.69007873535156 260.64692662988284,177.03382873535156 260.1273956298828,176.03382873535156 C259.6039576298828,175.02601673535156 258.7445836298828,174.51820373535156 257.5492706298828,174.51820373535156 C256.3383336298828,174.51820373535156 255.4711456298828,175.02601673535156 254.9398956298828,176.03382873535156 C254.4086456298828,177.03382873535156 254.1430206298828,178.69007873535156 254.1430206298828,181.00257873535156 C254.1430206298828,182.50257873535156 254.2523956298828,183.70179773535156 254.4711456298828,184.59632873535156 C254.6977076298828,185.49476673535156 255.0570836298828,186.14320373535156 255.5492706298828,186.54945373535156 C256.0492706298828,186.94789073535156 256.7133336298828,187.14320373535156 257.5492706298828,187.14320373535156 zM257.5492706298828,187.14320373535156 " id="svg_32" fill="#ffffff" fill-opacity="1"/></g></g></g><g fill="#ffffff" fill-opacity="1" id="svg_33" class=""><g id="svg_34" fill="#ffffff" fill-opacity="1"><g id="svg_35" fill="#ffffff" fill-opacity="1"><path d="M270.5905456542969,191.22132873535156 C270.3717956542969,191.22132873535156 270.1921086542969,191.15492253535157 270.0592956542969,191.01820373535156 C269.9342956542969,190.87367273535156 269.8717956542969,190.68226673535156 269.8717956542969,190.44007873535156 L269.8717956542969,171.12757873535156 C269.8717956542969,170.90882873535156 269.9186706542969,170.74867273535156 270.0124206542969,170.64320373535156 C270.1061706542969,170.54164073535156 270.2546086542969,170.48695373535156 270.4655456542969,170.48695373535156 L278.2780456542969,170.48695373535156 C278.5163266542969,170.48695373535156 278.6882016542969,170.52601673535156 278.7936706542969,170.59632873535156 C278.8952326542969,170.65882873535156 278.9850766542969,170.79164073535156 279.0592956542969,170.98695373535156 L281.9655456542969,179.87757873535156 C282.0280456542969,180.02601673535156 282.0944516542969,180.09632873535156 282.1686706542969,180.09632873535156 C282.2194516542969,180.09632873535156 282.2702326542969,180.02601673535156 282.3249206542969,179.87757873535156 L284.9342956542969,171.29945373535156 C285.0788266542969,170.76039073535156 285.3288266542969,170.48695373535156 285.6842956542969,170.48695373535156 L293.7624206542969,170.48695373535156 C294.0944516542969,170.48695373535156 294.2624206542969,170.68617273535156 294.2624206542969,171.08070373535156 L294.2624206542969,190.40882873535156 C294.2624206542969,190.71351673535156 294.1882016542969,190.92445373535156 294.0436706542969,191.04945373535156 C293.9069516542969,191.16664123535156 293.6842956542969,191.22132873535156 293.3717956542969,191.22132873535156 L288.6530456542969,191.22132873535156 C288.3717956542969,191.22132873535156 288.1764826542969,191.17054753535157 288.0749206542969,191.06507873535156 C287.9694516542969,190.95179773535156 287.9186706542969,190.76820373535156 287.9186706542969,190.51820373535156 L287.9186706542969,177.97132873535156 C287.9186706542969,177.82679773535156 287.8796086542969,177.75257873535156 287.8092956542969,177.75257873535156 C287.7155456542969,177.75257873535156 287.6413266542969,177.83851673535156 287.5905456542969,178.00257873535156 L283.5592956542969,190.72132873535156 C283.4342956542969,191.05726673535156 283.2077326542969,191.22132873535156 282.8874206542969,191.22132873535156 L279.9499206542969,191.22132873535156 C279.6139826542969,191.22132873535156 279.3952326542969,191.05726673535156 279.2936706542969,190.72132873535156 L275.2624206542969,178.23695373535156 C275.2077326542969,178.04945373535156 275.1452326542969,177.95570373535156 275.0749206542969,177.95570373535156 C274.9811706542969,177.95570373535156 274.9342956542969,178.05726673535156 274.9342956542969,178.25257873535156 L274.9342956542969,190.61195373535156 C274.9342956542969,190.85414073535156 274.89132665429685,191.01429773535156 274.8092956542969,191.09632873535156 C274.73507665429685,191.18226623535156 274.5671086542969,191.22132873535156 274.3092956542969,191.22132873535156 zM270.5905456542969,191.22132873535156 " id="svg_36" fill="#ffffff" fill-opacity="1"/></g></g></g></g></svg>