<?xml version="1.0" encoding="UTF-8" standalone="no" ?>
<!DOCTYPE svg PUBLIC "-//W3C//DTD SVG 1.1//EN" "http://www.w3.org/Graphics/SVG/1.1/DTD/svg11.dtd">
<svg xmlns="http://www.w3.org/2000/svg" xmlns:xlink="http://www.w3.org/1999/xlink" version="1.1" width="1080" height="1080" viewBox="0 0 1080 1080" xml:space="preserve">
<desc>Created with Fabric.js 5.2.4</desc>
<defs>
</defs>
<g transform="matrix(1 0 0 1 540 540)" id="1367ca68-a3aa-47d7-b0c2-a95249b93472"  >
<rect style="stroke: none; stroke-width: 1; stroke-dasharray: none; stroke-linecap: butt; stroke-dashoffset: 0; stroke-linejoin: miter; stroke-miterlimit: 4; fill: rgb(255,255,255); fill-rule: nonzero; opacity: 1; visibility: hidden;" vector-effect="non-scaling-stroke"  x="-540" y="-540" rx="0" ry="0" width="1080" height="1080" />
</g>
<g transform="matrix(1 0 0 1 540 540)" id="6cb3bbd0-217e-451a-996a-4999755e00d4"  >
</g>
<g transform="matrix(1 0 0 1 540 540)" id="2c684ab6-0f8b-4b93-9c35-cab021bb242d"  >
<path style="stroke: rgb(0,0,0); stroke-width: 0; stroke-dasharray: none; stroke-linecap: butt; stroke-dashoffset: 0; stroke-linejoin: miter; stroke-miterlimit: 4; fill: rgb(255,129,58); fill-rule: nonzero; opacity: 1;" vector-effect="non-scaling-stroke"  transform=" translate(-160.01, -287.94)" d="M 137.4 374.6 C 149.9 387.1 170.2 387.1 182.7 374.6 L 310.7 246.60000000000002 C 319.9 237.40000000000003 322.59999999999997 223.70000000000002 317.59999999999997 211.70000000000002 C 312.59999999999997 199.70000000000002 300.99999999999994 191.9 287.99999999999994 191.9 L 32 192 C 19.1 192 7.399999999999999 199.8 2.3999999999999986 211.8 C -2.6000000000000014 223.8 0.1999999999999984 237.5 9.299999999999999 246.70000000000002 L 137.3 374.70000000000005 z" stroke-linecap="round" />
</g>
<g transform="matrix(NaN NaN NaN NaN 0 0)"  >
<g style=""   >
</g>
</g>
</svg>